<svg version="1.1" id="Layer_1" xmlns="http://www.w3.org/2000/svg" xmlns:xlink="http://www.w3.org/1999/xlink" x="0px" y="0px"
	 width="100%" viewBox="0 0 650 650" enable-background="new 0 0 650 650" xml:space="preserve">
<path fill="#000000" opacity="1.000000" stroke="none" 
	d="
M1.000000,290.000000 
	C1.000000,193.739609 1.000000,97.479210 1.000000,1.000000 
	C97.020782,1.000000 193.041733,1.000000 289.834839,1.367811 
	C290.098236,2.141265 289.632874,2.823774 289.074341,2.911190 
	C280.100769,4.315645 271.083740,5.463273 262.138611,7.024539 
	C236.679001,11.468210 212.406662,19.789434 189.015289,30.572535 
	C170.857651,38.942955 153.618393,48.962780 137.410980,60.808956 
	C118.715652,74.473587 101.158501,89.250183 85.694366,106.604942 
	C72.571198,121.332558 60.529343,136.748962 49.972382,153.416214 
	C37.793869,172.643555 27.857054,192.973663 20.122408,214.286545 
	C11.470003,238.128342 5.284518,262.658081 2.914339,288.029114 
	C2.847975,288.739471 1.663242,289.345398 1.000000,290.000000 
z"/>
<path fill="#000000" opacity="1.000000" stroke="none" 
	d="
M362.000000,0.999995 
	C458.260376,1.000000 554.520752,1.000000 651.000000,1.000000 
	C651.000000,97.020782 651.000000,193.041733 650.632202,289.834839 
	C649.858765,290.098236 649.176208,289.632874 649.088806,289.074341 
	C647.684326,280.100739 646.536743,271.083710 644.975525,262.138580 
	C640.531921,236.678940 632.210510,212.406647 621.427429,189.015259 
	C613.057068,170.857620 603.037170,153.618454 591.191040,137.411026 
	C577.526489,118.715645 562.749878,101.158508 545.395142,85.694389 
	C530.667480,72.571205 515.251099,60.529388 498.583801,49.972431 
	C479.356476,37.793907 459.026367,27.857101 437.713470,20.122423 
	C413.871704,11.469985 389.341919,5.284514 363.970886,2.914329 
	C363.260529,2.847965 362.654633,1.663233 362.000000,0.999995 
z"/>
<path fill="#000000" opacity="1.000000" stroke="none" 
	d="
M290.000000,651.000000 
	C193.739609,651.000000 97.479210,651.000000 1.000000,651.000000 
	C1.000000,554.979187 1.000000,458.958252 1.367804,362.165161 
	C2.141252,361.901764 2.823775,362.367126 2.911188,362.925629 
	C4.315644,371.899231 5.463269,380.916229 7.024539,389.861389 
	C11.468204,415.321014 19.789413,439.593353 30.572535,462.984741 
	C38.942959,481.142365 48.962803,498.381653 60.809006,514.589050 
	C74.473663,533.284363 89.250198,550.841614 106.605011,566.305725 
	C121.332611,579.428833 136.748962,591.470764 153.416214,602.027649 
	C172.643616,614.206055 192.973648,624.143066 214.286575,631.877625 
	C238.128403,640.529968 262.658112,646.715515 288.029144,649.085632 
	C288.739502,649.151978 289.345398,650.336731 290.000000,651.000000 
z"/>
<path fill="#000000" opacity="1.000000" stroke="none" 
	d="
M651.000000,362.000000 
	C651.000000,458.260406 651.000000,554.520813 651.000000,651.000000 
	C554.979187,651.000000 458.958252,651.000000 362.165161,650.632202 
	C361.901581,649.858826 362.366821,649.176208 362.925171,649.088867 
	C371.898773,647.684326 380.915802,646.536621 389.860992,644.975525 
	C415.320648,640.532043 439.592865,632.210510 462.984344,621.427734 
	C481.142090,613.057434 498.381226,603.037292 514.588684,591.191223 
	C533.284241,577.526733 550.841309,562.750061 566.305481,545.395203 
	C579.428650,530.667542 591.470459,515.251160 602.027466,498.583893 
	C614.206055,479.356506 624.142883,459.026398 631.877502,437.713470 
	C640.529968,413.871704 646.715332,389.341888 649.085632,363.970886 
	C649.152039,363.260498 650.336731,362.654602 651.000000,362.000000 
z"/>
<path fill="#FBFBFB" opacity="1.000000" stroke="none" 
	d="
M651.000000,361.531342 
	C650.336731,362.654602 649.152039,363.260498 649.085632,363.970886 
	C646.715332,389.341888 640.529968,413.871704 631.877502,437.713470 
	C624.142883,459.026398 614.206055,479.356506 602.027466,498.583893 
	C591.470459,515.251160 579.428650,530.667542 566.305481,545.395203 
	C550.841309,562.750061 533.284241,577.526733 514.588684,591.191223 
	C498.381226,603.037292 481.142090,613.057434 462.984344,621.427734 
	C439.592865,632.210510 415.320648,640.532043 389.860992,644.975525 
	C380.915802,646.536621 371.898773,647.684326 362.925171,649.088867 
	C362.366821,649.176208 361.901581,649.858826 361.696533,650.632202 
	C338.312439,651.000000 314.624878,651.000000 290.468658,651.000000 
	C289.345398,650.336731 288.739502,649.151978 288.029144,649.085632 
	C262.658112,646.715515 238.128403,640.529968 214.286575,631.877625 
	C192.973648,624.143066 172.643616,614.206055 153.416214,602.027649 
	C136.748962,591.470764 121.332611,579.428833 106.605011,566.305725 
	C89.250198,550.841614 74.473663,533.284363 60.809006,514.589050 
	C48.962803,498.381653 38.942959,481.142365 30.572535,462.984741 
	C19.789413,439.593353 11.468204,415.321014 7.024539,389.861389 
	C5.463269,380.916229 4.315644,371.899231 2.911188,362.925629 
	C2.823775,362.367126 2.141252,361.901764 1.367804,361.696533 
	C1.000000,338.312439 1.000000,314.624878 1.000000,290.468658 
	C1.663242,289.345398 2.847975,288.739471 2.914339,288.029114 
	C5.284518,262.658081 11.470003,238.128342 20.122408,214.286545 
	C27.857054,192.973663 37.793869,172.643555 49.972382,153.416214 
	C60.529343,136.748962 72.571198,121.332558 85.694366,106.604942 
	C101.158501,89.250183 118.715652,74.473587 137.410980,60.808956 
	C153.618393,48.962780 170.857651,38.942955 189.015289,30.572535 
	C212.406662,19.789434 236.679001,11.468210 262.138611,7.024539 
	C271.083740,5.463273 280.100769,4.315645 289.074341,2.911190 
	C289.632874,2.823774 290.098236,2.141265 290.303467,1.367811 
	C313.687561,1.000000 337.375122,1.000000 361.531342,0.999995 
	C362.654633,1.663233 363.260529,2.847965 363.970886,2.914329 
	C389.341919,5.284514 413.871704,11.469985 437.713470,20.122423 
	C459.026367,27.857101 479.356476,37.793907 498.583801,49.972431 
	C515.251099,60.529388 530.667480,72.571205 545.395142,85.694389 
	C562.749878,101.158508 577.526489,118.715645 591.191040,137.411026 
	C603.037170,153.618454 613.057068,170.857620 621.427429,189.015259 
	C632.210510,212.406647 640.531921,236.678940 644.975525,262.138580 
	C646.536743,271.083710 647.684326,280.100739 649.088806,289.074341 
	C649.176208,289.632874 649.858765,290.098236 650.632202,290.303467 
	C651.000000,313.687561 651.000000,337.375122 651.000000,361.531342 
M8.965906,282.507385 
	C5.054589,311.056915 4.958162,339.607971 8.819932,368.175690 
	C18.094402,436.784271 46.023457,496.900848 94.262222,546.349060 
	C171.431641,625.453308 265.750946,657.647156 375.214264,641.924805 
	C450.653229,631.089539 514.230286,596.044434 564.534485,538.981750 
	C630.777527,463.838867 656.453552,375.754974 641.989197,276.610840 
	C632.337524,210.454437 603.544312,153.043930 557.246887,104.983742 
	C499.815002,45.365116 429.421112,12.422559 346.654694,6.795966 
	C285.353546,2.628613 227.172440,14.737917 173.634781,44.758389 
	C80.670265,96.886909 25.815254,176.200577 8.965906,282.507385 
z"/>
<path fill="#262626" opacity="1.000000" stroke="none" 
	d="
M8.999384,282.064392 
	C25.815254,176.200577 80.670265,96.886909 173.634781,44.758389 
	C227.172440,14.737917 285.353546,2.628613 346.654694,6.795966 
	C429.421112,12.422559 499.815002,45.365116 557.246887,104.983742 
	C603.544312,153.043930 632.337524,210.454437 641.989197,276.610840 
	C656.453552,375.754974 630.777527,463.838867 564.534485,538.981750 
	C514.230286,596.044434 450.653229,631.089539 375.214264,641.924805 
	C265.750946,657.647156 171.431641,625.453308 94.262222,546.349060 
	C46.023457,496.900848 18.094402,436.784271 8.819932,368.175690 
	C4.958162,339.607971 5.054589,311.056915 8.999384,282.064392 
M543.970764,512.471008 
	C544.174500,512.207031 544.370605,511.936676 544.583008,511.679810 
	C599.940918,444.733887 622.067688,368.046967 609.607361,282.210205 
	C599.838257,214.912460 569.074707,157.874847 518.328674,112.538033 
	C450.749420,52.162228 371.277008,28.499218 281.765198,41.478817 
	C214.650452,51.210754 157.788132,82.028290 112.572472,132.635437 
	C53.275387,199.003052 29.305080,276.998901 40.971951,365.220428 
	C50.069134,434.010712 80.692055,492.464172 132.665710,538.306152 
	C212.236099,608.489014 304.338562,629.096741 406.547729,601.168152 
	C461.118835,586.256592 506.346039,555.592346 543.970764,512.471008 
z"/>
<path fill="#FAFAFA" opacity="1.000000" stroke="none" 
	d="
M543.735229,512.736084 
	C506.346039,555.592346 461.118835,586.256592 406.547729,601.168152 
	C304.338562,629.096741 212.236099,608.489014 132.665710,538.306152 
	C80.692055,492.464172 50.069134,434.010712 40.971951,365.220428 
	C29.305080,276.998901 53.275387,199.003052 112.572472,132.635437 
	C157.788132,82.028290 214.650452,51.210754 281.765198,41.478817 
	C371.277008,28.499218 450.749420,52.162228 518.328674,112.538033 
	C569.074707,157.874847 599.838257,214.912460 609.607361,282.210205 
	C622.067688,368.046967 599.940918,444.733887 544.583008,511.679810 
	C544.370605,511.936676 544.174500,512.207031 543.735229,512.736084 
M196.394058,571.145020 
	C246.802658,597.389587 300.273621,607.525452 356.736115,601.130432 
	C420.136566,593.949646 475.125031,568.140015 520.086975,523.066528 
	C583.123108,459.873993 610.281128,383.085419 601.013550,294.199249 
	C594.396912,230.738388 568.098022,175.806519 523.015869,130.856873 
	C459.811584,67.838387 383.016479,40.704929 294.135376,49.993610 
	C230.678955,56.625237 176.026672,83.194748 130.765091,127.969940 
	C81.289093,176.914246 53.855194,236.502014 48.805912,306.070099 
	C44.873150,360.255066 56.080837,411.286652 82.191994,458.887482 
	C108.840660,507.468201 146.981934,544.578613 196.394058,571.145020 
z"/>
<path fill="#242424" opacity="1.000000" stroke="none" 
	d="
M196.051804,571.006287 
	C146.981934,544.578613 108.840660,507.468201 82.191994,458.887482 
	C56.080837,411.286652 44.873150,360.255066 48.805912,306.070099 
	C53.855194,236.502014 81.289093,176.914246 130.765091,127.969940 
	C176.026672,83.194748 230.678955,56.625237 294.135376,49.993610 
	C383.016479,40.704929 459.811584,67.838387 523.015869,130.856873 
	C568.098022,175.806519 594.396912,230.738388 601.013550,294.199249 
	C610.281128,383.085419 583.123108,459.873993 520.086975,523.066528 
	C475.125031,568.140015 420.136566,593.949646 356.736115,601.130432 
	C300.273621,607.525452 246.802658,597.389587 196.051804,571.006287 
M210.449768,259.019440 
	C209.311356,258.012573 208.304718,256.739502 206.990021,256.088837 
	C206.053070,255.625153 204.701843,255.998474 203.535477,255.998474 
	C183.066055,255.998444 162.596619,255.998444 141.305954,255.998444 
	C140.646545,262.789093 140.012100,269.322571 139.349899,276.142059 
	C136.942001,276.142059 134.496216,276.142059 131.334488,276.142059 
	C129.326920,292.875000 129.316284,309.301453 131.353867,325.816040 
	C134.713989,325.967987 137.284271,326.084198 139.340851,326.177216 
	C140.048676,333.113434 140.699326,339.489227 141.373428,346.094910 
	C158.026382,346.094910 173.801147,346.094910 189.910187,346.094910 
	C189.910187,356.252533 189.910187,366.082428 189.910187,375.706787 
	C180.130844,375.706787 171.020981,375.706787 162.357605,375.706787 
	C161.635773,368.994293 160.949768,362.615051 160.255386,356.157837 
	C150.397552,356.157837 141.271606,356.157837 132.201523,356.157837 
	C129.050613,364.669647 129.039871,377.198730 132.178253,385.830261 
	C134.677750,385.957458 137.243652,386.088074 139.349426,386.195251 
	C140.046280,393.071716 140.693420,399.457672 141.338943,405.827698 
	C164.660858,405.827698 187.124405,405.827698 210.303543,405.827698 
	C210.999084,399.229034 211.684555,392.726196 212.403366,385.906830 
	C214.829025,385.906830 217.285873,385.906830 220.315781,385.906830 
	C222.266251,369.149078 222.444046,352.732605 220.238266,335.801575 
	C216.977142,335.801575 214.410843,335.801575 212.392822,335.801575 
	C211.626587,328.868103 210.924088,322.511383 210.191605,315.883484 
	C193.607483,315.883484 177.833206,315.883484 161.607880,315.883484 
	C161.607880,305.807617 161.607880,296.099976 161.607880,286.342957 
	C171.414078,286.342957 180.626511,286.342957 189.361084,286.342957 
	C190.049362,293.105438 190.698578,299.484039 191.342911,305.814697 
	C201.381409,305.814697 210.514038,305.814697 219.704987,305.814697 
	C222.558838,295.847565 222.666656,286.078735 219.539703,275.792786 
	C216.968750,275.792786 214.406784,275.792786 212.307755,275.792786 
	C211.739044,270.099182 211.227280,264.975647 210.449768,259.019440 
M430.071136,311.472168 
	C431.643738,329.534302 428.285187,347.822327 431.847931,365.820312 
	C434.166748,365.974213 435.783142,366.081482 438.059357,366.232574 
	C438.059357,370.529816 437.763977,374.692017 438.124634,378.796509 
	C438.755371,385.974518 438.924408,385.946930 446.163849,386.013916 
	C447.437439,386.025696 448.709564,386.194611 449.565338,386.259399 
	C450.266083,393.029083 450.926270,399.406799 451.593079,405.848694 
	C468.211487,405.848694 484.009583,405.848694 500.594849,405.848694 
	C501.254517,399.274933 501.909332,392.749237 502.596313,385.903259 
	C505.839172,385.903259 509.119324,385.903259 513.109924,385.903259 
	C513.788635,379.279877 514.441284,372.911133 515.126465,366.224701 
	C516.461914,366.094025 518.212708,365.922760 520.987244,365.651276 
	C522.207397,342.365234 522.713074,319.247375 520.725586,296.294556 
	C517.770996,295.997406 516.162598,295.835663 515.136902,295.732513 
	C514.423645,288.952423 513.754395,282.590088 513.037781,275.777954 
	C508.803223,275.777954 505.418243,275.777954 502.604065,275.777954 
	C501.871307,268.820099 501.201752,262.462494 500.543213,256.209625 
	C483.763062,256.209625 467.973022,256.209625 451.529510,256.209625 
	C450.873840,262.752014 450.232758,269.148956 449.550751,275.954163 
	C446.508698,275.954163 443.246460,275.954163 439.116211,275.954163 
	C438.460541,282.772369 437.834473,289.282684 437.201263,295.867310 
	C435.576660,295.962402 433.941345,296.058105 431.682861,296.190277 
	C431.137482,301.046387 430.604309,305.793610 430.071136,311.472168 
M291.893616,327.752014 
	C291.893616,313.914276 291.893616,300.076569 291.893616,285.904175 
	C296.597015,285.904175 300.713959,285.904175 304.784119,285.904175 
	C307.655121,275.757812 307.788849,265.985168 304.725922,256.211670 
	C285.352875,256.211670 266.242981,256.211670 247.017319,256.211670 
	C244.095627,266.217712 244.164261,275.992065 247.111893,286.090149 
	C251.412109,286.090149 255.524399,286.090149 260.159760,286.090149 
	C260.159760,316.160004 260.159760,345.887939 260.159760,375.947693 
	C255.469727,375.947693 251.352402,375.947693 247.128738,375.947693 
	C244.028687,386.064056 244.235245,395.859772 246.975647,405.833130 
	C266.271149,405.833130 285.399017,405.833130 304.485443,405.833130 
	C307.909546,396.423157 307.826324,384.562012 304.152802,375.793427 
	C300.224304,375.793427 296.126068,375.793427 291.925293,375.793427 
	C291.925293,359.822968 291.925293,344.251312 291.893616,327.752014 
M385.507324,375.997986 
	C381.059753,375.997986 376.612183,375.997986 372.207458,375.997986 
	C371.915344,370.018585 371.432770,364.575226 371.428711,359.131531 
	C371.420319,347.861359 371.710785,336.591278 371.794250,325.320557 
	C371.865204,315.739471 371.816681,306.157501 371.823700,296.575928 
	C371.831268,286.290497 371.988312,276.001862 371.764740,265.721497 
	C371.694794,262.503754 370.602570,259.308258 370.001770,256.223083 
	C360.369446,256.223083 351.261627,256.223083 340.913513,256.223083 
	C340.734070,263.667542 340.477753,270.918121 340.405792,278.170502 
	C340.322235,286.595093 340.415314,295.021332 340.404694,303.446808 
	C340.390259,314.890320 340.344543,326.333801 340.323059,337.777313 
	C340.306641,346.531097 340.306854,355.284851 340.299774,364.038635 
	C340.290771,375.153107 340.161316,386.269684 340.355621,397.380615 
	C340.405762,400.247803 341.473175,403.097198 342.058716,405.885345 
	C368.264130,405.885345 393.908997,405.885345 419.903534,405.885345 
	C422.691406,395.904999 422.935211,386.049377 419.732971,375.997986 
	C408.483093,375.997986 397.493713,375.997986 385.507324,375.997986 
z"/>
<path fill="#FEFEFE" opacity="1.000000" stroke="none" 
	d="
M210.582642,259.435791 
	C211.227280,264.975647 211.739044,270.099182 212.307755,275.792786 
	C214.406784,275.792786 216.968750,275.792786 219.539703,275.792786 
	C222.666656,286.078735 222.558838,295.847565 219.704987,305.814697 
	C210.514038,305.814697 201.381409,305.814697 191.342911,305.814697 
	C190.698578,299.484039 190.049362,293.105438 189.361084,286.342957 
	C180.626511,286.342957 171.414078,286.342957 161.607880,286.342957 
	C161.607880,296.099976 161.607880,305.807617 161.607880,315.883484 
	C177.833206,315.883484 193.607483,315.883484 210.191605,315.883484 
	C210.924088,322.511383 211.626587,328.868103 212.392822,335.801575 
	C214.410843,335.801575 216.977142,335.801575 220.238266,335.801575 
	C222.444046,352.732605 222.266251,369.149078 220.315781,385.906830 
	C217.285873,385.906830 214.829025,385.906830 212.403366,385.906830 
	C211.684555,392.726196 210.999084,399.229034 210.303543,405.827698 
	C187.124405,405.827698 164.660858,405.827698 141.338943,405.827698 
	C140.693420,399.457672 140.046280,393.071716 139.349426,386.195251 
	C137.243652,386.088074 134.677750,385.957458 132.178253,385.830261 
	C129.039871,377.198730 129.050613,364.669647 132.201523,356.157837 
	C141.271606,356.157837 150.397552,356.157837 160.255386,356.157837 
	C160.949768,362.615051 161.635773,368.994293 162.357605,375.706787 
	C171.020981,375.706787 180.130844,375.706787 189.910187,375.706787 
	C189.910187,366.082428 189.910187,356.252533 189.910187,346.094910 
	C173.801147,346.094910 158.026382,346.094910 141.373428,346.094910 
	C140.699326,339.489227 140.048676,333.113434 139.340851,326.177216 
	C137.284271,326.084198 134.713989,325.967987 131.353867,325.816040 
	C129.316284,309.301453 129.326920,292.875000 131.334488,276.142059 
	C134.496216,276.142059 136.942001,276.142059 139.349899,276.142059 
	C140.012100,269.322571 140.646545,262.789093 141.305954,255.998444 
	C162.596619,255.998444 183.066055,255.998444 203.535477,255.998474 
	C204.701843,255.998474 206.053070,255.625153 206.990021,256.088837 
	C208.304718,256.739502 209.311356,258.012573 210.582642,259.435791 
z"/>
<path fill="#FEFEFE" opacity="1.000000" stroke="none" 
	d="
M430.071136,311.006531 
	C430.604309,305.793610 431.137482,301.046387 431.682861,296.190277 
	C433.941345,296.058105 435.576660,295.962402 437.201263,295.867310 
	C437.834473,289.282684 438.460541,282.772369 439.116211,275.954163 
	C443.246460,275.954163 446.508698,275.954163 449.550751,275.954163 
	C450.232758,269.148956 450.873840,262.752014 451.529510,256.209625 
	C467.973022,256.209625 483.763062,256.209625 500.543213,256.209625 
	C501.201752,262.462494 501.871307,268.820099 502.604065,275.777954 
	C505.418243,275.777954 508.803223,275.777954 513.037781,275.777954 
	C513.754395,282.590088 514.423645,288.952423 515.136902,295.732513 
	C516.162598,295.835663 517.770996,295.997406 520.725586,296.294556 
	C522.713074,319.247375 522.207397,342.365234 520.987244,365.651276 
	C518.212708,365.922760 516.461914,366.094025 515.126465,366.224701 
	C514.441284,372.911133 513.788635,379.279877 513.109924,385.903259 
	C509.119324,385.903259 505.839172,385.903259 502.596313,385.903259 
	C501.909332,392.749237 501.254517,399.274933 500.594849,405.848694 
	C484.009583,405.848694 468.211487,405.848694 451.593079,405.848694 
	C450.926270,399.406799 450.266083,393.029083 449.565338,386.259399 
	C448.709564,386.194611 447.437439,386.025696 446.163849,386.013916 
	C438.924408,385.946930 438.755371,385.974518 438.124634,378.796509 
	C437.763977,374.692017 438.059357,370.529816 438.059357,366.232574 
	C435.783142,366.081482 434.166748,365.974213 431.847931,365.820312 
	C428.285187,347.822327 431.643738,329.534302 430.071136,311.006531 
M469.644043,289.045624 
	C469.154633,294.607544 468.665222,300.169495 468.179993,305.683838 
	C465.562408,305.935730 463.837646,306.101685 461.830322,306.294830 
	C461.830322,323.016144 461.830322,339.366272 461.830322,355.707825 
	C464.150787,355.978516 465.899994,356.182526 468.167664,356.447052 
	C468.808746,362.990875 469.431885,369.351318 470.046051,375.620239 
	C474.201202,375.620239 478.415924,375.620239 482.203094,375.620239 
	C482.879608,368.844360 483.514343,362.487030 484.136993,356.250977 
	C486.706604,356.040955 488.300537,355.910675 490.333069,355.744537 
	C490.333069,339.106964 490.333069,322.752960 490.333069,306.325226 
	C488.051575,306.044708 486.326721,305.832611 483.969604,305.542816 
	C483.390594,298.984711 482.827911,292.611267 482.244141,285.999207 
	C478.713959,285.999207 475.223114,285.868317 471.756531,286.099976 
	C470.981842,286.151733 470.292175,287.475555 469.644043,289.045624 
z"/>
<path fill="#FEFEFE" opacity="1.000000" stroke="none" 
	d="
M291.909454,328.215820 
	C291.925293,344.251312 291.925293,359.822968 291.925293,375.793427 
	C296.126068,375.793427 300.224304,375.793427 304.152802,375.793427 
	C307.826324,384.562012 307.909546,396.423157 304.485443,405.833130 
	C285.399017,405.833130 266.271149,405.833130 246.975647,405.833130 
	C244.235245,395.859772 244.028687,386.064056 247.128738,375.947693 
	C251.352402,375.947693 255.469727,375.947693 260.159760,375.947693 
	C260.159760,345.887939 260.159760,316.160004 260.159760,286.090149 
	C255.524399,286.090149 251.412109,286.090149 247.111893,286.090149 
	C244.164261,275.992065 244.095627,266.217712 247.017319,256.211670 
	C266.242981,256.211670 285.352875,256.211670 304.725922,256.211670 
	C307.788849,265.985168 307.655121,275.757812 304.784119,285.904175 
	C300.713959,285.904175 296.597015,285.904175 291.893616,285.904175 
	C291.893616,300.076569 291.893616,313.914276 291.909454,328.215820 
z"/>
<path fill="#FEFEFE" opacity="1.000000" stroke="none" 
	d="
M386.005829,375.997986 
	C397.493713,375.997986 408.483093,375.997986 419.732971,375.997986 
	C422.935211,386.049377 422.691406,395.904999 419.903534,405.885345 
	C393.908997,405.885345 368.264130,405.885345 342.058716,405.885345 
	C341.473175,403.097198 340.405762,400.247803 340.355621,397.380615 
	C340.161316,386.269684 340.290771,375.153107 340.299774,364.038635 
	C340.306854,355.284851 340.306641,346.531097 340.323059,337.777313 
	C340.344543,326.333801 340.390259,314.890320 340.404694,303.446808 
	C340.415314,295.021332 340.322235,286.595093 340.405792,278.170502 
	C340.477753,270.918121 340.734070,263.667542 340.913513,256.223083 
	C351.261627,256.223083 360.369446,256.223083 370.001770,256.223083 
	C370.602570,259.308258 371.694794,262.503754 371.764740,265.721497 
	C371.988312,276.001862 371.831268,286.290497 371.823700,296.575928 
	C371.816681,306.157501 371.865204,315.739471 371.794250,325.320557 
	C371.710785,336.591278 371.420319,347.861359 371.428711,359.131531 
	C371.432770,364.575226 371.915344,370.018585 372.207458,375.997986 
	C376.612183,375.997986 381.059753,375.997986 386.005829,375.997986 
z"/>
<path fill="#272727" opacity="1.000000" stroke="none" 
	d="
M469.603699,288.629700 
	C470.292175,287.475555 470.981842,286.151733 471.756531,286.099976 
	C475.223114,285.868317 478.713959,285.999207 482.244141,285.999207 
	C482.827911,292.611267 483.390594,298.984711 483.969604,305.542816 
	C486.326721,305.832611 488.051575,306.044708 490.333069,306.325226 
	C490.333069,322.752960 490.333069,339.106964 490.333069,355.744537 
	C488.300537,355.910675 486.706604,356.040955 484.136993,356.250977 
	C483.514343,362.487030 482.879608,368.844360 482.203094,375.620239 
	C478.415924,375.620239 474.201202,375.620239 470.046051,375.620239 
	C469.431885,369.351318 468.808746,362.990875 468.167664,356.447052 
	C465.899994,356.182526 464.150787,355.978516 461.830322,355.707825 
	C461.830322,339.366272 461.830322,323.016144 461.830322,306.294830 
	C463.837646,306.101685 465.562408,305.935730 468.179993,305.683838 
	C468.665222,300.169495 469.154633,294.607544 469.603699,288.629700 
z"/>
</svg>
